<svg width="400" height="400" viewBox="0 0 400 400" fill="none" xmlns="http://www.w3.org/2000/svg">
<circle cx="200" cy="200" r="200" fill="#313235"/>
<path d="M90.35 287.48C83.0754 287.48 77.6607 285.785 74.106 282.396C70.5514 278.924 68.774 274.047 68.774 267.764V236.392H59.598V222.256H68.774V205.02H88.118V222.256H101.882V236.392H88.118V265.408C88.118 267.557 88.5727 269.169 89.482 270.244C90.3914 271.236 91.9207 271.732 94.07 271.732C95.31 271.732 96.674 271.484 98.1621 270.988C99.65 270.492 100.89 269.872 101.882 269.128V285C100.146 285.909 98.2447 286.529 96.178 286.86C94.194 287.273 92.2514 287.48 90.35 287.48ZM225.801 288.6C217.161 288.6 210.201 286.04 204.921 280.92C199.641 275.64 195.721 268.12 193.161 258.36L167.721 157.56C167.561 157.24 167.321 157.16 167.001 157.32C166.681 157.32 166.521 157.48 166.521 157.8V284.76H125.481V138.6C125.481 126.76 128.841 117.64 135.561 111.24C142.281 104.68 150.681 101.4 160.761 101.4C179.481 101.4 191.881 112.84 197.961 135.72L224.841 234.12C225.001 234.6 225.241 234.84 225.561 234.84C225.881 234.84 226.121 234.6 226.281 234.12L252.441 135.72C255.481 124.52 260.121 116.04 266.361 110.28C272.761 104.36 280.841 101.4 290.601 101.4C300.681 101.4 309.001 104.68 315.561 111.24C322.281 117.64 325.641 126.76 325.641 138.6V284.76H284.841V156.12C284.841 155.8 284.681 155.56 284.361 155.4C284.041 155.24 283.801 155.4 283.641 155.88L257.961 258.36C255.561 268.12 251.721 275.64 246.441 280.92C241.321 286.04 234.441 288.6 225.801 288.6Z" fill="white"/>
</svg>
